<svg width="35" height="35" viewBox="0 0 35 35" fill="none" xmlns="http://www.w3.org/2000/svg">
<path fill-rule="evenodd" clip-rule="evenodd" d="M17.9583 2.91663V11.125L17.9582 11.1794V11.1794C17.9582 11.6034 17.9581 12.0156 18.0038 12.3555C18.0553 12.7387 18.1808 13.176 18.544 13.5392C18.9073 13.9024 19.3445 14.0279 19.7277 14.0794C20.0676 14.1251 20.4798 14.125 20.9038 14.125H20.9038L20.9583 14.125H29.1666V23.3333C29.1666 27.4581 29.1666 29.5205 27.8852 30.8019C26.6038 32.0833 24.5414 32.0833 20.4166 32.0833H14.5833C10.4585 32.0833 8.39607 32.0833 7.11466 30.8019C5.83325 29.5205 5.83325 27.4581 5.83325 23.3333V11.6666C5.83325 7.54184 5.83325 5.47944 7.11466 4.19803C8.39607 2.91663 10.4585 2.91663 14.5833 2.91663H17.9583ZM19.9583 2.91738V11.125C19.9583 11.6246 19.9604 11.8988 19.9859 12.089L19.9869 12.0963L19.9942 12.0973C20.1844 12.1228 20.4586 12.125 20.9583 12.125H29.1658C29.1616 11.2543 29.1332 10.7556 28.9446 10.3003C28.7225 9.76426 28.301 9.34276 27.458 8.49976L27.458 8.49975L23.5835 4.62517C22.7405 3.78216 22.319 3.36066 21.783 3.13864C21.3276 2.95004 20.8289 2.92165 19.9583 2.91738Z" fill="white"/>
<path d="M11.6667 22.0521C11.6667 21.1093 11.6667 20.6379 11.9596 20.345C12.2525 20.0521 12.7239 20.0521 13.6667 20.0521H21.3334C22.2762 20.0521 22.7476 20.0521 23.0405 20.345C23.3334 20.6379 23.3334 21.1093 23.3334 22.0521V25.9128C23.3334 26.7538 22.7611 27.4869 21.9452 27.6909C19.0267 28.4205 15.9735 28.4205 13.055 27.6909C12.2391 27.4869 11.6667 26.7538 11.6667 25.9128V22.0521Z" fill="#0094FF" fill-opacity="0.97"/>
<path d="M12 15.75V17.75" stroke="white" stroke-linecap="round"/>
<path d="M20.7813 20.052V19.3229C20.7813 17.5107 19.3122 16.0416 17.5 16.0416V16.0416C15.6878 16.0416 14.2188 17.5107 14.2188 19.3229V20.052" stroke="#0094FF" stroke-opacity="0.97"/>
<ellipse cx="17.5001" cy="22.9687" rx="1.45833" ry="1.45833" fill="white"/>
</svg>
