<svg width="25" height="25" viewBox="0 0 25 25" fill="none" xmlns="http://www.w3.org/2000/svg">
<path fill-rule="evenodd" clip-rule="evenodd" d="M19.7711 9.69404C18.9809 7.64775 17.3518 6.01872 15.3055 5.22864C15.0844 5.48594 14.9039 5.77915 14.774 6.09833C16.6955 6.78094 18.2187 8.30412 18.9014 10.2255C19.2206 10.0956 19.5138 9.91514 19.7711 9.69404ZM12.7867 5.7142C12.6916 5.71025 12.596 5.70825 12.4999 5.70825C8.74899 5.70825 5.70825 8.74898 5.70825 12.4999C5.70825 16.2509 8.74899 19.2916 12.4999 19.2916C16.2509 19.2916 19.2916 16.2509 19.2916 12.4999C19.2916 12.4037 19.2896 12.308 19.2856 12.2128C19.627 12.1035 19.9529 11.9596 20.2593 11.7854C20.2807 12.0207 20.2916 12.259 20.2916 12.4999C20.2916 16.8031 16.8031 20.2916 12.4999 20.2916C8.1967 20.2916 4.70825 16.8031 4.70825 12.4999C4.70825 8.1967 8.1967 4.70825 12.4999 4.70825C12.7407 4.70825 12.9789 4.71917 13.2141 4.74055C13.0399 5.04691 12.896 5.37283 12.7867 5.7142Z" fill="white"/>
<circle cx="17.7083" cy="7.29175" r="3.125" fill="white"/>
</svg>
